# xmcd CD database file
# Copyright (C) 1995-1998 Ti Kan
#
# Track frame offsets:
#	150
#	17974
#	40383
#	58105
#	70610
#	91138
#	114373
#	136027
#	156173
#	182216
#	204707
#	221070
#
# Disc length: 3239 seconds
#
# Revision: 4
# Processed by: cddbd v1.4PL0 Copyright (c) Steve Scherf et al.
# Submitted via: CDex 1.40Beta3
#
DISCID=a90ca50c
DTITLE=Gordon Haskell - Harry's bar
DYEAR=2002
DGENRE=Blues
TTITLE0=How wonderful you are
TTITLE1=All the time in the world
TTITLE2=Voodoo dance
TTITLE3=Freeway to her dreams
TTITLE4=Sunshine in the night
TTITLE5=Al Capone
TTITLE6=Feelin' loose
TTITLE7=There goes my heart again
TTITLE8=Roll with it
TTITLE9=Someone I knew
TTITLE10=A little help from you
TTITLE11=All in the scheme of things
EXTD=YEAR: 2002 ID3G:   0
EXTT0=
EXTT1=
EXTT2=
EXTT3=
EXTT4=
EXTT5=
EXTT6=
EXTT7=
EXTT8=
EXTT9=
EXTT10=
EXTT11=
PLAYORDER=
